<?xml version="1.0" encoding="UTF-8" standalone="no"?>
<svg xmlns:rdf="http://www.w3.org/1999/02/22-rdf-syntax-ns#" xmlns="http://www.w3.org/2000/svg" height="96" width="96" version="1.1" xmlns:cc="http://creativecommons.org/ns#" xmlns:dc="http://purl.org/dc/elements/1.1/" viewBox="0 0 96 96">
 <title>GPLv3 Logo</title>
 <metadata>
  <rdf:RDF>
   <cc:Work>
    <dc:format>image/svg+xml</dc:format>
    <dc:type rdf:resource="http://purl.org/dc/dcmitype/StillImage"/>
    <dc:title>GPLv3 Logo</dc:title>
    <cc:license rdf:resource="http://creativecommons.org/licenses/by/3.0/"/>
    <dc:creator>
     <cc:Agent>
      <dc:title>Christian Candena</dc:title>
     </cc:Agent>
    </dc:creator>
    <dc:source>https://www.gnu.org/graphics/license-logos-by-christian-candena-cc-by.svg</dc:source>
    <dc:description>Derived from Christian Candena&apos;s GPLv3 logo</dc:description>
   </cc:Work>
   <cc:License rdf:about="http://creativecommons.org/licenses/by/3.0/">
    <cc:permits rdf:resource="http://creativecommons.org/ns#Reproduction"/>
    <cc:permits rdf:resource="http://creativecommons.org/ns#Distribution"/>
    <cc:requires rdf:resource="http://creativecommons.org/ns#Notice"/>
    <cc:requires rdf:resource="http://creativecommons.org/ns#Attribution"/>
    <cc:permits rdf:resource="http://creativecommons.org/ns#DerivativeWorks"/>
   </cc:License>
  </rdf:RDF>
 </metadata>
 <path d="m60.54 9.37h19.455l-29.97 50.5c-1.71 2.814-3.38 4.98-5.007 6.498-1.63 1.52-3.133 2.622-4.512 3.312-1.38 0.69-2.566 1.09-3.56 1.2-0.993 0.11-1.685 0.166-2.07 0.166h-17.88v-43.628h16.722l0.083 29.968 26.739-48.016zm-37.27 67.26c0.027-0.19-0.005-0.32-0.1-0.392h0.005c-0.086-0.065-0.21-0.098-0.376-0.098h-3.11c-0.19 0-0.36 0.04-0.52 0.128-0.14 0.07-0.23 0.158-0.27 0.257l-0.33 0.907h2.29l-0.23 0.636h-2.29l-0.71 1.938h-0.629l1.27-3.48c0.103-0.284 0.32-0.53 0.647-0.732 0.32-0.195 0.654-0.294 1.004-0.294h3.11c0.33 0 0.58 0.093 0.74 0.272 0.18 0.183 0.23 0.47 0.15 0.857h-0.64zm4.59 1.21c0.013-0.18-0.04-0.302-0.16-0.366-0.046-0.027-0.096-0.048-0.152-0.06-0.058-0.008-0.117-0.014-0.178-0.014h-1.5c-0.152 0-0.302 0.03-0.45 0.09-0.172 0.063-0.275 0.146-0.312 0.245l-0.824 2.265h-0.64l1.177-3.234h0.64l-0.04 0.135c0.13-0.04 0.25-0.08 0.36-0.1s0.22-0.03 0.33-0.03h1.5c0.29 0 0.52 0.08 0.7 0.22 0.22 0.18 0.29 0.46 0.2 0.86h-0.63zm5.69-0.11c-0.108 0.3-0.346 0.545-0.71 0.737-0.303 0.16-0.61 0.236-0.918 0.236h-1.5c-0.1 0-0.192-0.01-0.28-0.025-0.086-0.017-0.19-0.05-0.314-0.098l-0.158 0.433-0.004 0.01c-0.022 0.09 0.03 0.17 0.16 0.243 0.055 0.04 0.112 0.064 0.172 0.08 0.06 0.017 0.12 0.023 0.182 0.023h1.5c0.063 0 0.126-0.01 0.19-0.02 0.063-0.01 0.128-0.03 0.192-0.06 0.168-0.07 0.31-0.19 0.428-0.37h0.633c-0.197 0.39-0.468 0.67-0.814 0.85-0.29 0.15-0.57 0.22-0.86 0.22h-1.5c-0.29 0-0.53-0.08-0.73-0.23-0.25-0.19-0.31-0.44-0.2-0.75l0.47-1.3c0.11-0.31 0.34-0.55 0.69-0.73 0.29-0.16 0.6-0.24 0.93-0.24h1.5c0.31 0 0.57 0.07 0.75 0.22 0.22 0.183 0.28 0.43 0.16 0.74zm-0.644 0.01c0.03-0.082 0-0.153-0.09-0.216-0.1-0.08-0.24-0.12-0.427-0.12h-1.5c-0.13 0-0.28 0.03-0.45 0.09-0.18 0.06-0.28 0.142-0.32 0.242-0.04 0.097 0.01 0.177 0.13 0.24 0.11 0.064 0.24 0.095 0.38 0.095h1.5c0.18 0 0.35-0.03 0.5-0.11 0.132-0.06 0.22-0.13 0.25-0.21zm5.674-0.01c-0.11 0.3-0.346 0.545-0.712 0.737-0.302 0.16-0.606 0.236-0.916 0.236h-1.5c-0.1 0-0.193-0.01-0.28-0.025-0.086-0.017-0.19-0.05-0.314-0.098l-0.158 0.433-0.004 0.01c-0.02 0.09 0.03 0.17 0.16 0.243 0.055 0.04 0.112 0.064 0.172 0.08 0.06 0.017 0.12 0.023 0.182 0.023h1.502c0.06 0 0.123-0.01 0.188-0.02 0.064-0.01 0.13-0.03 0.193-0.06 0.168-0.07 0.31-0.19 0.428-0.37h0.64c-0.19 0.39-0.47 0.67-0.81 0.85-0.28 0.15-0.57 0.22-0.85 0.22h-1.501c-0.29 0-0.533-0.08-0.73-0.23-0.244-0.19-0.31-0.44-0.197-0.75l0.47-1.3c0.113-0.31 0.346-0.55 0.697-0.73 0.294-0.16 0.605-0.24 0.932-0.24h1.5c0.315 0 0.567 0.07 0.754 0.22 0.222 0.183 0.28 0.43 0.165 0.74zm-0.643 0.01c0.03-0.082-0.002-0.153-0.092-0.216-0.098-0.08-0.24-0.12-0.426-0.12h-1.5c-0.13 0-0.28 0.03-0.45 0.09-0.18 0.06-0.28 0.142-0.32 0.242-0.04 0.097 0.01 0.177 0.13 0.24 0.11 0.064 0.24 0.095 0.38 0.095h1.5c0.17 0 0.34-0.03 0.5-0.11 0.13-0.06 0.22-0.13 0.25-0.21zm10.313 1.97c-0.305 0.193-0.637 0.29-0.99 0.29h-3.12c-0.327 0-0.57-0.088-0.733-0.263-0.176-0.19-0.226-0.48-0.15-0.867h0.635c-0.02 0.183 0.014 0.313 0.105 0.392h-0.006c0.1 0.068 0.22 0.104 0.39 0.104h3.12c0.18 0 0.36-0.043 0.51-0.128 0.15-0.075 0.24-0.164 0.27-0.264l0.19-0.516c0.04-0.1 0.01-0.188-0.08-0.263-0.09-0.086-0.23-0.13-0.42-0.13h-3.12c-0.35 0-0.61-0.096-0.78-0.29-0.18-0.198-0.22-0.445-0.11-0.74l0.19-0.517c0.11-0.283 0.32-0.528 0.65-0.73 0.32-0.196 0.66-0.295 1.01-0.295h3.12c0.33 0 0.57 0.093 0.73 0.272 0.18 0.183 0.23 0.47 0.15 0.857h-0.633c0.02-0.183-0.014-0.314-0.106-0.392-0.09-0.065-0.21-0.098-0.38-0.098h-3.12c-0.19 0-0.36 0.04-0.52 0.128-0.14 0.07-0.23 0.158-0.263 0.257l-0.19 0.517c-0.04 0.104-0.015 0.192 0.07 0.268 0.097 0.086 0.24 0.13 0.43 0.13h3.12c0.354 0 0.614 0.096 0.78 0.288 0.185 0.204 0.224 0.448 0.12 0.737l-0.19 0.516c-0.104 0.292-0.323 0.54-0.655 0.737zm4.96 0.06c-0.298 0.157-0.603 0.236-0.916 0.236h-1.5c-0.308 0-0.556-0.078-0.746-0.23-0.23-0.19-0.29-0.44-0.18-0.744l0.472-1.294c0.11-0.3 0.346-0.545 0.713-0.738 0.3-0.158 0.608-0.237 0.92-0.237h1.502c0.295 0 0.538 0.074 0.73 0.223 0.238 0.192 0.303 0.44 0.19 0.747l-0.473 1.3c-0.108 0.298-0.346 0.544-0.712 0.737zm0.546-2.038c0.034-0.097-0.01-0.177-0.133-0.242-0.106-0.06-0.233-0.087-0.38-0.087h-1.503c-0.15 0-0.3 0.026-0.44 0.082-0.178 0.068-0.283 0.15-0.318 0.247l-0.475 1.305c-0.035 0.097 0.01 0.177 0.134 0.242 0.12 0.06 0.24 0.09 0.38 0.09h1.51c0.07 0 0.14-0.01 0.22-0.02 0.08-0.02 0.15-0.04 0.23-0.07 0.18-0.07 0.29-0.16 0.32-0.26l0.47-1.3zm2.374-0.332l-0.946 2.6h-0.64l1.287-3.537c0.11-0.302 0.32-0.546 0.63-0.728 0.27-0.158 0.6-0.237 1.01-0.237l-0.22 0.625c-0.25 0.038-0.43 0.085-0.55 0.143-0.11 0.06-0.18 0.125-0.21 0.197l-0.11 0.303h0.619l-0.23 0.635h-0.64zm2.9 0l-0.946 2.6h-0.645l0.94-2.6h-0.64l0.23-0.635h0.63l0.46-1.272h0.64l-0.47 1.272h0.64l-0.23 0.635h-0.639zm4.88 2.35c-0.27 0.16-0.578 0.243-0.918 0.243-0.185 0-0.358-0.026-0.52-0.078s-0.294-0.133-0.406-0.242c-0.192 0.106-0.392 0.188-0.596 0.242-0.204 0.056-0.398 0.083-0.584 0.083-0.327 0-0.57-0.08-0.733-0.236-0.18-0.18-0.213-0.426-0.1-0.738l0.823-2.26h0.64l-0.824 2.265c-0.034 0.09-0.006 0.17 0.09 0.23 0.104 0.06 0.248 0.1 0.434 0.1 0.188 0 0.355-0.03 0.5-0.1 0.14-0.06 0.23-0.14 0.268-0.24l0.507-1.39h0.64l-0.5 1.39c-0.03 0.1 0 0.17 0.09 0.23 0.11 0.06 0.25 0.1 0.43 0.1 0.19 0 0.36-0.04 0.51-0.1s0.23-0.14 0.27-0.23l0.83-2.27h0.648l-0.823 2.26c-0.11 0.3-0.324 0.54-0.642 0.73zm4.82 0.02c-0.3 0.153-0.61 0.23-0.93 0.23h-1.5c-0.324 0-0.58-0.075-0.764-0.226-0.224-0.18-0.28-0.425-0.165-0.738 0.11-0.303 0.35-0.547 0.71-0.732 0.31-0.158 0.61-0.236 0.93-0.236h1.5c0.1 0 0.19 0.01 0.28 0.025 0.09 0.018 0.19 0.05 0.32 0.1l0.16-0.44c0.02-0.093-0.03-0.175-0.15-0.246-0.11-0.07-0.23-0.104-0.35-0.104h-1.5c-0.06 0-0.13 0.006-0.19 0.015-0.06 0.01-0.13 0.03-0.19 0.06-0.17 0.063-0.31 0.186-0.422 0.365h-0.64c0.2-0.393 0.47-0.676 0.81-0.852 0.285-0.14 0.57-0.22 0.865-0.22h1.496c0.29 0 0.54 0.08 0.73 0.23 0.24 0.19 0.3 0.44 0.19 0.75l-0.47 1.3c-0.11 0.31-0.35 0.55-0.7 0.74zm0.054-0.733c0.034-0.096-0.01-0.177-0.134-0.242-0.11-0.062-0.237-0.094-0.377-0.094h-1.503c-0.174 0-0.344 0.04-0.51 0.12-0.136 0.06-0.218 0.14-0.25 0.22-0.03 0.09 0 0.16 0.085 0.22 0.104 0.08 0.246 0.12 0.43 0.12h1.505c0.147 0 0.294-0.02 0.437-0.08 0.178-0.07 0.282-0.15 0.317-0.24zm5.476-1.197c0.014-0.18-0.04-0.302-0.16-0.366-0.045-0.027-0.096-0.048-0.152-0.06-0.057-0.008-0.116-0.014-0.178-0.014h-1.5c-0.15 0-0.303 0.03-0.45 0.09-0.17 0.063-0.274 0.146-0.312 0.245l-0.823 2.265h-0.64l1.176-3.234h0.64l-0.04 0.135c0.13-0.04 0.25-0.08 0.36-0.1s0.22-0.03 0.33-0.03h1.489c0.287 0 0.52 0.08 0.702 0.22 0.218 0.18 0.28 0.46 0.193 0.86h-0.635zm5.7-0.11c-0.11 0.3-0.346 0.545-0.712 0.737-0.3 0.16-0.607 0.236-0.916 0.236h-1.5c-0.102 0-0.193-0.01-0.28-0.025s-0.192-0.05-0.315-0.098l-0.156 0.433v0.01c-0.02 0.09 0.03 0.17 0.16 0.243 0.06 0.04 0.11 0.064 0.17 0.08 0.06 0.017 0.12 0.023 0.19 0.023h1.5c0.07 0 0.13-0.01 0.19-0.02s0.13-0.03 0.2-0.06c0.17-0.07 0.31-0.19 0.43-0.37h0.64c-0.2 0.39-0.47 0.67-0.81 0.85-0.28 0.15-0.57 0.22-0.85 0.22h-1.51c-0.29 0-0.53-0.08-0.73-0.23-0.242-0.19-0.31-0.44-0.195-0.75l0.47-1.3c0.114-0.31 0.347-0.55 0.698-0.73 0.3-0.16 0.61-0.24 0.94-0.24h1.5c0.315 0 0.567 0.07 0.754 0.22 0.224 0.183 0.28 0.43 0.168 0.74zm-0.643 0.01c0.03-0.082 0-0.153-0.092-0.216-0.098-0.08-0.24-0.12-0.426-0.12h-1.5c-0.13 0-0.28 0.03-0.45 0.09-0.18 0.06-0.28 0.142-0.32 0.242-0.04 0.097 0.01 0.177 0.13 0.24 0.11 0.064 0.24 0.095 0.38 0.095h1.5c0.18 0 0.34-0.03 0.5-0.11 0.13-0.06 0.21-0.13 0.24-0.21z" fill="#c4282d"/>
 <path d="m28.84 57.13c0.363 0.465 0.546 1.025 0.546 1.685v5.85c0 0.664-0.18 1.22-0.537 1.665-0.37 0.478-0.83 0.717-1.38 0.717h-4.56c-0.53 0-0.99-0.24-1.36-0.717-0.37-0.465-0.55-1.026-0.55-1.685v-5.86c0-0.612 0.17-1.132 0.51-1.558 0.33-0.446 0.87-0.732 1.6-0.862v1.19c-0.35 0.085-0.6 0.243-0.74 0.476-0.12 0.2-0.18 0.46-0.18 0.77v5.85c0 0.35 0.08 0.65 0.24 0.89 0.13 0.22 0.29 0.32 0.48 0.32h4.56c0.19 0 0.36-0.1 0.5-0.32l-0.01 0.01c0.16-0.24 0.24-0.53 0.24-0.88v-5.85c0-0.3-0.07-0.57-0.2-0.81-0.14-0.28-0.32-0.42-0.55-0.42h-1.67v4.74h-1.179v-5.931h2.868c0.53 0 0.983 0.244 1.362 0.735zm-3.6-12.5c0.358 0.446 0.538 1.005 0.538 1.676v7.06h3.606v1.19h-6.474c-0.53 0-0.985-0.238-1.363-0.716-0.364-0.465-0.546-1.026-0.546-1.686v-5.85c0-0.65 0.19-1.206 0.55-1.665 0.38-0.49 0.83-0.73 1.36-0.73h0.96c0.55 0 1 0.24 1.37 0.71zm-2.33 0.466c-0.18 0-0.34 0.11-0.48 0.33-0.16 0.244-0.24 0.538-0.24 0.88v5.858c0 0.298 0.06 0.565 0.182 0.804 0.122 0.266 0.3 0.397 0.537 0.397h1.68v-7.06c0-0.342-0.08-0.636-0.23-0.88-0.14-0.22-0.31-0.33-0.5-0.33h-0.96zm4.6-13.666c0.568 0.097 1.025 0.368 1.37 0.813 0.333 0.433 0.5 0.955 0.5 1.568v5.86c0 0.66-0.18 1.22-0.537 1.68-0.37 0.49-0.828 0.73-1.372 0.73h-6.46v-1.21h6.47c0.2 0 0.36-0.1 0.5-0.32l-0.01 0.01c0.16-0.24 0.24-0.53 0.24-0.88v-5.86c0-0.29-0.06-0.55-0.19-0.77v0.01c-0.14-0.23-0.38-0.39-0.72-0.47v-0.95l0.23-0.19z" fill="#fff"/>
 <path d="m80 67.82c0 0.92-0.406 1.695-1.22 2.323-0.746 0.606-1.68 0.91-2.794 0.91h-9.83c-1.03 0-1.902-0.276-2.617-0.83-0.77-0.595-1.26-1.504-1.47-2.728h2c0.14 0.574 0.4 0.985 0.78 1.235h-0.02c0.37 0.217 0.81 0.324 1.31 0.324h9.83c0.56 0 1.05-0.13 1.46-0.39 0.36-0.238 0.55-0.52 0.55-0.845v-1.63c0-0.31-0.19-0.58-0.56-0.82-0.43-0.28-0.93-0.42-1.48-0.42h-5.23v-2h5.25c0.57 0 1.06-0.14 1.46-0.41 0.363-0.24 0.55-0.52 0.55-0.83v-1.609c0-0.303-0.187-0.574-0.55-0.812-0.438-0.282-0.93-0.423-1.48-0.423h-9.81c-0.5 0-0.935 0.108-1.3 0.325h0.014c-0.39 0.228-0.655 0.64-0.796 1.235h-2c0.2-1.235 0.68-2.135 1.43-2.698 0.72-0.574 1.6-0.86 2.65-0.86h9.83c1.1 0 2.03 0.303 2.8 0.91 0.82 0.64 1.22 1.413 1.22 2.323 0 0.79-0.03 1.51-0.1 2.16-0.02 0.325-0.13 0.624-0.32 0.895-0.09 0.12-0.19 0.243-0.3 0.374-0.113 0.13-0.25 0.27-0.413 0.42 0.314 0.29 0.553 0.56 0.716 0.81 0.18 0.3 0.29 0.59 0.32 0.88 0.07 0.64 0.1 1.36 0.1 2.18z"/>
</svg>
