<?xml version="1.0" encoding="UTF-8" standalone="no"?>
<svg
   xmlns:dc="http://purl.org/dc/elements/1.1/"
   xmlns:cc="https://creativecommons.org/ns#"
   xmlns:rdf="http://www.w3.org/1999/02/22-rdf-syntax-ns#"
   xmlns:svg="http://www.w3.org/2000/svg"
   xmlns="http://www.w3.org/2000/svg"
   id="svg2"
   height="48"
   viewBox="0 0 48 48.000001"
   width="48"
   version="1.1">
  <title
     id="title3339">MeOr Logo Source</title>
  <defs
     id="defs4248" />
  <metadata
     id="metadata7">
    <rdf:RDF>
      <cc:Work
         rdf:about="">
        <dc:format>image/svg+xml</dc:format>
        <dc:type
           rdf:resource="http://purl.org/dc/dcmitype/StillImage" />
        <dc:title>MeOr Logo Source</dc:title>
        <dc:creator>
          <cc:Agent>
            <dc:title>HEXcube</dc:title>
          </cc:Agent>
        </dc:creator>
        <dc:description>Vector source of icon for MeOr media organiser app https://github.com/HEXcube/MeOr</dc:description>
        <cc:license
           rdf:resource="https://creativecommons.org/licenses/by-sa/4.0/" />
      </cc:Work>
      <cc:License
         rdf:about="https://creativecommons.org/licenses/by-sa/4.0/">
        <cc:permits
           rdf:resource="https://creativecommons.org/ns#Reproduction" />
        <cc:permits
           rdf:resource="https://creativecommons.org/ns#Distribution" />
        <cc:requires
           rdf:resource="https://creativecommons.org/ns#Notice" />
        <cc:requires
           rdf:resource="https://creativecommons.org/ns#Attribution" />
        <cc:permits
           rdf:resource="https://creativecommons.org/ns#DerivativeWorks" />
        <cc:requires
           rdf:resource="https://creativecommons.org/ns#ShareAlike" />
      </cc:License>
    </rdf:RDF>
  </metadata>
  <ellipse
     style="fill:#2196f3"
     cx="24"
     cy="26"
     ry="15"
     rx="20"
     id="path4148" />
  <path
     style="fill:#2196f3"
     d="M 24,26 4,26 4,6"
     id="rect4152" />
  <path
     style="fill:#2196f3"
     d="M 24,26 44,26 44,6"
     id="rect4152-0" />
  <circle
     style="fill:#000080"
     r="3"
     cx="14"
     cy="23"
     id="path4232" />
  <circle
     style="fill:#000080"
     r="3"
     cx="34"
     cy="23"
     id="path4232-0" />
  <path
     style="fill:#000080"
     d="m 22.094,31.433 c 0.47235,-0.60412 3.3792,-0.56659 3.8248,0.04937 0.4456,0.61597 -1.0502,2.529 -1.9681,2.5171 -0.91795,-0.01185 -2.329,-1.9624 -1.8567,-2.5665 z M 24.5,33 c 0,1.5408 3.5,1.5748 3.5,0 l 1,0 c 0,2.6667 -5.5,2.6667 -5.5,0 z M 20,33 c 0,1.5408 3.5,1.5748 3.5,0 l 1,0 c 0,2.6667 -5.5,2.6667 -5.5,0 z"
     id="path3343" />
</svg>
