<?xml version="1.0" encoding="UTF-8" standalone="no"?>
<svg xmlns:rdf="http://www.w3.org/1999/02/22-rdf-syntax-ns#" xmlns="http://www.w3.org/2000/svg" height="192" width="192" version="1.1" xmlns:cc="http://creativecommons.org/ns#" xmlns:dc="http://purl.org/dc/elements/1.1/" viewBox="0 0 192 192">
 <title>MeOr logo</title>
 <metadata>
  <rdf:RDF>
   <cc:Work rdf:about="">
    <dc:format>image/svg+xml</dc:format>
    <dc:type rdf:resource="http://purl.org/dc/dcmitype/StillImage"/>
    <dc:title>MeOr logo</dc:title>
    <dc:creator>
     <cc:Agent>
      <dc:title>HEXcube</dc:title>
     </cc:Agent>
    </dc:creator>
    <dc:description>Official logo for MeOr media organizer app https://github.com/HEXcube/MeOr</dc:description>
    <cc:license rdf:resource="https://creativecommons.org/licenses/by-sa/4.0/"/>
   </cc:Work>
  </rdf:RDF>
 </metadata>
 <defs>
  <filter id="filterDropShadow" style="color-interpolation-filters:sRGB">
   <feFlood id="feFlood" flood-color="rgb(0,0,0)" flood-opacity=".5" result="flood"/>
   <feComposite operator="in" result="composite1" in2="SourceGraphic" in="flood"/>
   <feGaussianBlur id="feGaussianBlur" in="composite1" stdDeviation="1" result="blur"/>
   <feOffset id="feOffset" dy="2" dx="2" result="offset"/>
   <feComposite operator="over" result="composite2" in2="offset" in="SourceGraphic"/>
  </filter>
 </defs>
 <path filter="url(#filterDropShadow)" d="m16 30v80a80 60 0 0 0 80 60 80 60 0 0 0 80 -60v-80l-32.055 32.055a80 60 0 0 0 -47.94 -12.055 80 60 0 0 0 -47.953 12.047l-32.047-32.047zm40 56a12 12 0 0 1 12 12 12 12 0 0 1 -12 12 12 12 0 0 1 -12 -12 12 12 0 0 1 12 -12zm80 0a12 12 0 0 1 12 12 12 12 0 0 1 -12 12 12 12 0 0 1 -12 -12 12 12 0 0 1 12 -12zm-39.938 44c3.3658 0.0436 6.7182 0.69776 7.6094 1.9297 1.3019 1.7997-1.5365 6.3429-4.5938 8.6562 3.262 3.42 12.922 2.65 12.922-2.59h4c0 8.6858-14.582 10.296-20 4.8359-5.418 5.46-20 3.85-20-4.84h4c0 5.0782 9.4895 6.0526 12.836 2.7188-3.0479-2.3276-5.8778-7.1721-4.4609-8.9844 0.9447-1.2082 4.3217-1.7778 7.6875-1.7344z" fill="#29e"/>
</svg>
