<?xml version="1.0" encoding="UTF-8" standalone="no"?>
<svg xmlns:rdf="http://www.w3.org/1999/02/22-rdf-syntax-ns#" xmlns="http://www.w3.org/2000/svg" height="48" width="48" version="1.1" xmlns:cc="http://creativecommons.org/ns#" xmlns:dc="http://purl.org/dc/elements/1.1/" viewBox="0 0 48 48">
 <title>MeOr icon</title>
 <metadata>
  <rdf:RDF>
   <cc:Work rdf:about="">
    <dc:format>image/svg+xml</dc:format>
    <dc:type rdf:resource="http://purl.org/dc/dcmitype/StillImage"/>
    <dc:title>MeOr icon</dc:title>
    <dc:creator>
     <cc:Agent>
      <dc:title>HEXcube</dc:title>
     </cc:Agent>
    </dc:creator>
    <dc:description>Official icon for MeOr media organizer app https://github.com/HEXcube/MeOr</dc:description>
    <cc:license rdf:resource="https://creativecommons.org/licenses/by-sa/4.0/"/>
   </cc:Work>
  </rdf:RDF>
 </metadata>
 <path fill="#29e" d="m4 6v20a20 15 0 0 0 20 15 20 15 0 0 0 20 -15v-20l-8.014 8.014a20 15 0 0 0 -11.986 -3.014 20 15 0 0 0 -11.988 3.012l-8.012-8.012zm10 14a3 3 0 0 1 3 3 3 3 0 0 1 -3 3 3 3 0 0 1 -3 -3 3 3 0 0 1 3 -3zm20 0a3 3 0 0 1 3 3 3 3 0 0 1 -3 3 3 3 0 0 1 -3 -3 3 3 0 0 1 3 -3zm-9.9844 11c0.84146 0.01086 1.6795 0.17444 1.9023 0.48242 0.32547 0.44992-0.38413 1.5857-1.1484 2.1641 0.815 0.857 3.23 0.664 3.23-0.646h1c0 2.1715-3.6455 2.5739-5 1.209-1.355 1.365-5 0.962-5-1.209h1c0 1.2696 2.3724 1.5131 3.209 0.67969-0.762-0.582-1.469-1.793-1.115-2.246 0.236-0.302 1.08-0.445 1.922-0.434z"/>
</svg>
