<?xml version="1.0" encoding="UTF-8" standalone="no"?>
<svg id="svg2" xmlns:rdf="http://www.w3.org/1999/02/22-rdf-syntax-ns#" xmlns="http://www.w3.org/2000/svg" height="48" viewBox="0 0 48 48.000001" width="48" version="1.1" xmlns:cc="https://creativecommons.org/ns#" xmlns:dc="http://purl.org/dc/elements/1.1/">
 <title id="title3335">MeOr icon</title>
 <metadata id="metadata7">
  <rdf:RDF>
   <cc:Work rdf:about="">
    <dc:format>image/svg+xml</dc:format>
    <dc:type rdf:resource="http://purl.org/dc/dcmitype/StillImage"/>
    <dc:title>MeOr icon</dc:title>
    <dc:creator>
     <cc:Agent>
      <dc:title>HEXcube</dc:title>
     </cc:Agent>
    </dc:creator>
    <dc:description>Official icon for MeOr media organiser https://github.com/HEXcube/MeOr</dc:description>
    <cc:license rdf:resource="https://creativecommons.org/licenses/by-sa/3.0/"/>
   </cc:Work>
   <cc:License rdf:about="https://creativecommons.org/licenses/by-sa/4.0/">
    <cc:permits rdf:resource="https://creativecommons.org/ns#Reproduction"/>
    <cc:permits rdf:resource="https://creativecommons.org/ns#Distribution"/>
    <cc:requires rdf:resource="https://creativecommons.org/ns#Notice"/>
    <cc:requires rdf:resource="https://creativecommons.org/ns#Attribution"/>
    <cc:permits rdf:resource="https://creativecommons.org/ns#DerivativeWorks"/>
    <cc:requires rdf:resource="https://creativecommons.org/ns#ShareAlike"/>
   </cc:License>
  </rdf:RDF>
 </metadata>
 <path id="path4148" d="m4 6v20a20 15 0 0 0 20 15 20 15 0 0 0 20 -15v-20l-8.014 8.014a20 15 0 0 0 -11.986 -3.014 20 15 0 0 0 -11.988 3.012l-8.012-8.012zm10 14a3 3 0 0 1 3 3 3 3 0 0 1 -3 3 3 3 0 0 1 -3 -3 3 3 0 0 1 3 -3zm20 0a3 3 0 0 1 3 3 3 3 0 0 1 -3 3 3 3 0 0 1 -3 -3 3 3 0 0 1 3 -3zm-9.984 11c0.841 0.011 1.679 0.174 1.902 0.482 0.325 0.45-0.384 1.586-1.148 2.164 0.815 0.857 3.23 0.664 3.23-0.646h1c0 2.171-3.645 2.574-5 1.209-1.355 1.365-5 0.962-5-1.209h1c0 1.27 2.372 1.513 3.209 0.68-0.762-0.582-1.469-1.793-1.115-2.246 0.236-0.302 1.08-0.445 1.922-0.434z" fill="#2196f3"/>
</svg>
