<?xml version="1.0" encoding="UTF-8" standalone="no"?>
<svg xmlns:rdf="http://www.w3.org/1999/02/22-rdf-syntax-ns#" xmlns="http://www.w3.org/2000/svg" height="48" width="48" version="1.1" xmlns:cc="http://creativecommons.org/ns#" xmlns:xlink="http://www.w3.org/1999/xlink" viewBox="0 0 48 48" xmlns:dc="http://purl.org/dc/elements/1.1/">
 <title>MeOr Logo Source</title>
 <metadata>
  <rdf:RDF>
   <cc:Work rdf:about="">
    <dc:format>image/svg+xml</dc:format>
    <dc:type rdf:resource="http://purl.org/dc/dcmitype/StillImage"/>
    <dc:title>MeOr Logo Source</dc:title>
    <dc:creator>
     <cc:Agent>
      <dc:title>HEXcube</dc:title>
     </cc:Agent>
    </dc:creator>
    <dc:description>Vector source of icon for MeOr media organizer app https://github.com/HEXcube/MeOr</dc:description>
    <cc:license rdf:resource="https://creativecommons.org/licenses/by-sa/4.0/"/>
   </cc:Work>
  </rdf:RDF>
 </metadata>
 <ellipse id="head" rx="20" ry="15" cy="26" cx="24" fill="#29e"/>
 <path id="ear" d="m24 26h-20v-20" fill="#29e"/>
 <use id="ear-clone" xlink:href="#ear" transform="matrix(-1,0,0,1,48,0)" height="100%" width="100%" y="0" x="0"/>
 <circle id="eye" cy="23" cx="14" r="3" fill="#008"/>
 <use id="eye-clone" xlink:href="#eye" transform="translate(20)" height="100%" width="100%" y="0" x="0"/>
 <path id="nose-mouth" fill="#008" d="m22.094 31.433c0.47235-0.60412 3.3792-0.56659 3.8248 0.04937 0.4456 0.61597-1.0502 2.529-1.9681 2.5171-0.91795-0.01185-2.329-1.9624-1.8567-2.5665zm2.406 1.567c0 1.5408 3.5 1.5748 3.5 0h1c0 2.6667-5.5 2.6667-5.5 0zm-4.5 0c0 1.5408 3.5 1.5748 3.5 0h1c0 2.6667-5.5 2.6667-5.5 0z"/>
</svg>
